<svg xmlns="http://www.w3.org/2000/svg" width="1920.321" height="843.406" viewBox="104.263 -281.98 1920.321 843.406"><path fill="#FDA100" d="M104.705-281.98h1919.879v843.406H104.705V-281.98z"/><path fill="#FFF" d="M2024.584 254.071v-50.178l-.147-.078-48.647 25.025h-3.799l-48.57-25.025-48.65 25.025h-3.797l-48.571-25.025-48.647 25.025h-3.8l-48.569-25.025-48.648 25.025h-3.799l-48.57-25.025-48.648 25.025h-3.799l-48.57-25.025-48.653 25.025h-3.797l-48.572-25.025-48.647 25.025h-3.8l-48.567-25.025-48.65 25.025h-3.799l-48.57-25.025-48.648 25.025h-3.799l-48.57-25.025-48.649 25.025h-3.797l-48.57-25.025-48.647 25.025h-3.8l-48.571-25.025-48.646 25.025H860.8l-48.57-25.025-48.648 25.025h-3.799l-48.57-25.025-48.647 25.025h-3.799l-48.57-25.025-48.647 25.025h-3.8l-48.571-25.025-48.646 25.025h-3.799l-48.572-25.025-48.648 25.025h-3.799l-48.57-25.025-48.647 25.025h-3.799l-48.572-25.025-48.647 25.025h-2.539l-48.568-25.025-2.103 1.08v49.176h1920.314z"/><path fill="#393" d="M104.705 254.071h1919.879v307.355H104.705V254.071z"/></svg>