<svg xmlns="http://www.w3.org/2000/svg" width="444.374" height="809.668"><g fill="#FFF"><path d="M0 88.625S0 6.834 89.375 0c0 0-.375 81.168-86.875 89.668 0 0 12.5-34.834 40.5-58.334 0 0-28.167 6.915-43 57.291zM118.333 88.625s0-81.791 89.375-88.625c0 0-.376 81.168-86.875 89.668 0 0 12.501-34.834 40.501-58.334 0 0-28.168 6.915-43.001 57.291zM236.666 88.625s0-81.791 89.375-88.625c0 0-.375 81.168-86.875 89.668 0 0 12.5-34.834 40.5-58.334 0 0-28.167 6.915-43 57.291zM354.999 88.625s0-81.791 89.375-88.625c0 0-.375 81.168-86.875 89.668 0 0 12.5-34.834 40.5-58.334 0 0-28.167 6.915-43 57.291zM0 208.625S0 126.834 89.375 120c0 0-.375 81.168-86.875 89.668 0 0 12.5-34.834 40.5-58.334 0 0-28.167 6.915-43 57.291zM118.333 208.625s0-81.791 89.375-88.625c0 0-.376 81.168-86.875 89.668 0 0 12.501-34.834 40.501-58.334 0 0-28.168 6.915-43.001 57.291zM236.666 208.625s0-81.791 89.375-88.625c0 0-.375 81.168-86.875 89.668 0 0 12.5-34.834 40.5-58.334 0 0-28.167 6.915-43 57.291zM354.999 208.625s0-81.791 89.375-88.625c0 0-.375 81.168-86.875 89.668 0 0 12.5-34.834 40.5-58.334 0 0-28.167 6.915-43 57.291zM0 328.625S0 246.834 89.375 240c0 0-.375 81.168-86.875 89.668 0 0 12.5-34.834 40.5-58.334 0 0-28.167 6.915-43 57.291zM118.333 328.625s0-81.791 89.375-88.625c0 0-.376 81.168-86.875 89.668 0 0 12.501-34.834 40.501-58.334 0 0-28.168 6.915-43.001 57.291zM236.666 328.625s0-81.791 89.375-88.625c0 0-.375 81.168-86.875 89.668 0 0 12.5-34.834 40.5-58.334 0 0-28.167 6.915-43 57.291zM354.999 328.625s0-81.791 89.375-88.625c0 0-.375 81.168-86.875 89.668 0 0 12.5-34.834 40.5-58.334 0 0-28.167 6.915-43 57.291zM0 448.625S0 366.834 89.375 360c0 0-.375 81.168-86.875 89.668 0 0 12.5-34.834 40.5-58.334 0 0-28.167 6.915-43 57.291zM118.333 448.625s0-81.791 89.375-88.625c0 0-.376 81.168-86.875 89.668 0 0 12.501-34.834 40.501-58.334 0 0-28.168 6.915-43.001 57.291zM236.666 448.625s0-81.791 89.375-88.625c0 0-.375 81.168-86.875 89.668 0 0 12.5-34.834 40.5-58.334 0 0-28.167 6.915-43 57.291zM354.999 448.625s0-81.791 89.375-88.625c0 0-.375 81.168-86.875 89.668 0 0 12.5-34.834 40.5-58.334 0 0-28.167 6.915-43 57.291zM0 568.625S0 486.834 89.375 480c0 0-.375 81.168-86.875 89.668 0 0 12.5-34.834 40.5-58.334 0 0-28.167 6.915-43 57.291zM118.333 568.625s0-81.791 89.375-88.625c0 0-.376 81.168-86.875 89.668 0 0 12.501-34.834 40.501-58.334 0 0-28.168 6.915-43.001 57.291zM236.666 568.625s0-81.791 89.375-88.625c0 0-.375 81.168-86.875 89.668 0 0 12.5-34.834 40.5-58.334 0 0-28.167 6.915-43 57.291zM354.999 568.625s0-81.791 89.375-88.625c0 0-.375 81.168-86.875 89.668 0 0 12.5-34.834 40.5-58.334 0 0-28.167 6.915-43 57.291zM0 688.625S0 606.834 89.375 600c0 0-.375 81.168-86.875 89.668 0 0 12.5-34.834 40.5-58.334 0 0-28.167 6.915-43 57.291zM118.333 688.625s0-81.791 89.375-88.625c0 0-.376 81.168-86.875 89.668 0 0 12.501-34.834 40.501-58.334 0 0-28.168 6.915-43.001 57.291zM236.666 688.625s0-81.791 89.375-88.625c0 0-.375 81.168-86.875 89.668 0 0 12.5-34.834 40.5-58.334 0 0-28.167 6.915-43 57.291zM354.999 688.625s0-81.791 89.375-88.625c0 0-.375 81.168-86.875 89.668 0 0 12.5-34.834 40.5-58.334 0 0-28.167 6.915-43 57.291zM0 808.625S0 726.834 89.375 720c0 0-.375 81.168-86.875 89.668 0 0 12.5-34.834 40.5-58.334 0 0-28.167 6.915-43 57.291zM118.333 808.625s0-81.791 89.375-88.625c0 0-.376 81.168-86.875 89.668 0 0 12.501-34.834 40.501-58.334 0 0-28.168 6.915-43.001 57.291zM236.666 808.625s0-81.791 89.375-88.625c0 0-.375 81.168-86.875 89.668 0 0 12.5-34.834 40.5-58.334 0 0-28.167 6.915-43 57.291zM354.999 808.625s0-81.791 89.375-88.625c0 0-.375 81.168-86.875 89.668 0 0 12.5-34.834 40.5-58.334 0 0-28.167 6.915-43 57.291z"/></g></svg>