<svg xmlns="http://www.w3.org/2000/svg" width="104.668" height="69.582"><g fill="#EA2027"><circle cx="6.166" cy="6.168" r="6.167"/><circle cx="29.25" cy="6.168" r="6.167"/><circle cx="52.334" cy="6.168" r="6.167"/><circle cx="75.418" cy="6.168" r="6.167"/><circle cx="98.502" cy="6.168" r="6.167"/><circle cx="6.166" cy="25.25" r="6.167"/><circle cx="29.25" cy="25.25" r="6.167"/><circle cx="52.334" cy="25.25" r="6.167"/><circle cx="75.418" cy="25.25" r="6.167"/><circle cx="98.502" cy="25.25" r="6.167"/><circle cx="6.166" cy="44.334" r="6.167"/><circle cx="29.25" cy="44.334" r="6.167"/><circle cx="52.334" cy="44.334" r="6.167"/><circle cx="75.418" cy="44.334" r="6.167"/><circle cx="98.502" cy="44.334" r="6.167"/><circle cx="6.166" cy="63.416" r="6.167"/><circle cx="29.25" cy="63.416" r="6.167"/><circle cx="52.334" cy="63.416" r="6.167"/><circle cx="75.418" cy="63.416" r="6.167"/><circle cx="98.502" cy="63.416" r="6.167"/></g></svg>