<svg xmlns="http://www.w3.org/2000/svg" width="315.145" height="230.508"><path fill="#FFF" d="M315.145 112.509V92.958l-18.895 9.721h-1.48l-18.925-9.751-18.955 9.751h-1.48l-18.926-9.751-18.953 9.751h-1.481l-18.925-9.751-18.954 9.751h-1.48l-18.925-9.751-18.955 9.751h-1.48l-18.925-9.751-18.954 9.751h-1.481l-18.924-9.751-18.955 9.751H58.61l-18.922-9.751-18.958 9.751h-.988L.818 92.928 0 93.349v19.16zM315.145 151.842v-19.55l-18.895 9.719h-1.48l-18.925-9.75-18.955 9.75h-1.48l-18.926-9.75-18.953 9.75h-1.481l-18.925-9.75-18.954 9.75h-1.48l-18.925-9.75-18.955 9.75h-1.48l-18.925-9.75-18.954 9.75h-1.481l-18.924-9.75-18.955 9.75H58.61l-18.922-9.75-18.958 9.75h-.988l-18.924-9.75-.818.421v19.16zM315.145 191.175v-19.55l-18.895 9.72h-1.48l-18.925-9.751-18.955 9.751h-1.48l-18.926-9.751-18.953 9.751h-1.481l-18.925-9.751-18.954 9.751h-1.48l-18.925-9.751-18.955 9.751h-1.48l-18.925-9.751-18.954 9.751h-1.481l-18.924-9.751-18.955 9.751H58.61l-18.922-9.751-18.958 9.751h-.988L.818 171.594l-.818.421v19.16zM315.145 230.508v-19.55l-18.895 9.719h-1.48l-18.925-9.75-18.955 9.75h-1.48l-18.926-9.75-18.953 9.75h-1.481l-18.925-9.75-18.954 9.75h-1.48l-18.925-9.75-18.955 9.75h-1.48l-18.925-9.75-18.954 9.75h-1.481l-18.924-9.75-18.955 9.75H58.61l-18.922-9.75-18.958 9.75h-.988l-18.924-9.75-.818.421v19.16z"/><path fill="#1C239D" d="M2.449 51.375a.742.742 0 01-.742-.742V2.262a.74.74 0 01.742-.741h26.949a.738.738 0 01.741.789l-.778 11.918a.74.74 0 01-.74.693H16.51v5.761h9.619c.408 0 .742.332.742.741v10.283c0 .41-.334.742-.742.742H16.51v18.186c0 .41-.332.742-.74.742H2.449z"/><path fill="#FFF" d="M29.398 2.262l-.777 11.918H15.77v7.244h10.359v10.283H15.77v18.927H2.449V2.262h26.949m0-1.484H2.449C1.63.778.966 1.443.966 2.262v48.371c0 .819.664 1.483 1.483 1.483h13.32c.818 0 1.482-.664 1.482-1.483V33.189h8.877c.818 0 1.483-.664 1.483-1.483V21.423c0-.818-.665-1.483-1.483-1.483h-8.877v-4.277H28.62c.781 0 1.43-.606 1.48-1.386l.78-11.918A1.486 1.486 0 0029.398.778z"/><path fill="#1C239D" d="M52.143 51.375a.745.745 0 01-.715-.543L46.75 33.927h-.486v16.706c0 .41-.332.742-.74.742H32.438a.742.742 0 01-.743-.742V2.262c0-.41.332-.741.743-.741h18.069c5.374 0 9.391 1.306 11.939 3.881 2.546 2.574 3.836 6.68 3.836 12.206 0 3.001-.469 5.542-1.393 7.554-.864 1.881-2.191 3.613-3.947 5.154l6.318 20.096a.748.748 0 01-.108.662.746.746 0 01-.599.302h-14.41zm-4.594-27.11c1.109 0 1.855-.284 2.283-.866.326-.444.713-1.464.713-3.806 0-2.346-.392-3.392-.721-3.855-.427-.602-1.146-.895-2.198-.895h-1.362v9.422h1.285z"/><path fill="#FFF" d="M50.508 2.262c5.193 0 8.996 1.221 11.41 3.661 2.416 2.441 3.623 6.336 3.623 11.684 0 2.909-.44 5.323-1.322 7.244-.887 1.921-2.26 3.66-4.13 5.218l6.466 20.563H52.143l-4.828-17.447h-1.791v17.447H32.438V2.262h18.07m-4.985 22.745h2.025c1.35 0 2.311-.39 2.881-1.168.572-.779.857-2.194.857-4.246 0-2.051-.285-3.478-.857-4.284-.57-.804-1.507-1.207-2.804-1.207h-2.103v10.905M50.508.778h-18.07c-.821 0-1.485.665-1.485 1.484v48.371c0 .819.664 1.483 1.485 1.483h13.085c.818 0 1.483-.664 1.483-1.483V37.635l3.707 13.395a1.486 1.486 0 001.429 1.087h14.412a1.48 1.48 0 001.195-.605c.279-.381.361-.872.221-1.323l-6.176-19.641c1.655-1.528 2.923-3.231 3.77-5.076.971-2.109 1.461-4.755 1.461-7.864 0-5.728-1.363-10.01-4.051-12.728C60.281 2.158 56.088.778 50.508.778zm-3.501 14.808h.619c1.179 0 1.493.438 1.595.583.175.247.584 1.076.584 3.424 0 2.338-.399 3.134-.572 3.368-.272.372-.84.562-1.684.562h-.542v-7.937z"/><path fill="#1C239D" d="M70.916 51.375a.742.742 0 01-.742-.742V2.262a.74.74 0 01.742-.741h26.949a.738.738 0 01.74.789l-.779 11.918a.74.74 0 01-.739.693h-12.11v5.761h10.396c.41 0 .743.332.743.741v10.283c0 .41-.333.742-.743.742H84.977v6.539h12.889a.738.738 0 01.74.794l-.779 10.905a.74.74 0 01-.739.689H70.916z"/><path fill="#FFF" d="M97.865 2.262l-.778 11.918H84.234v7.244h11.139v10.283H84.234v8.022h13.631l-.778 10.905H70.916V2.262h26.949m0-1.484H70.916c-.819 0-1.484.665-1.484 1.484v48.371c0 .819.665 1.483 1.484 1.483h26.171c.778 0 1.424-.601 1.479-1.377l.779-10.905a1.484 1.484 0 00-1.481-1.59H85.719v-5.056h9.654c.82 0 1.482-.664 1.482-1.483V21.423c0-.818-.662-1.483-1.482-1.483h-9.654v-4.277h11.368c.78 0 1.43-.606 1.481-1.386l.778-11.917A1.483 1.483 0 0097.865.778z"/><path fill="#1C239D" d="M115.742 52.154c-4.911 0-9.771-.772-14.445-2.295a.741.741 0 01-.51-.76l.855-11.606a.738.738 0 01.318-.554.738.738 0 01.63-.104c5.46 1.583 9.296 2.386 11.397 2.386 2.23 0 2.529-1.083 2.529-2.14 0-.738-.469-1.433-1.439-2.122-1.133-.805-2.527-1.624-4.147-2.434a53.284 53.284 0 01-5.095-2.923c-1.783-1.151-3.305-2.837-4.527-5.011-1.227-2.18-1.849-4.792-1.849-7.763 0-4.798 1.434-8.719 4.259-11.653 2.832-2.942 6.745-4.434 11.633-4.434 4.723 0 9.631.476 14.588 1.415a.742.742 0 01.598.82l-1.559 12.463a.743.743 0 01-.903.631c-5.064-1.176-8.57-1.772-10.426-1.772-2.588 0-2.92 1.186-2.92 2.218 0 .625.763 1.231 1.402 1.629 1.141.71 2.545 1.47 4.176 2.26a41.91 41.91 0 015.076 2.934c1.752 1.179 3.259 2.875 4.479 5.042 1.226 2.181 1.849 4.714 1.849 7.53 0 5.112-1.409 9.139-4.188 11.97-2.777 2.835-6.741 4.273-11.781 4.273z"/><path fill="#FFF" d="M115.352 1.483c4.7 0 9.516.468 14.451 1.403l-1.559 12.462c-5.141-1.194-8.674-1.791-10.594-1.791-2.441 0-3.662.986-3.662 2.959 0 .779.586 1.532 1.754 2.259 1.167.728 2.582 1.494 4.244 2.298a41.225 41.225 0 014.986 2.882c1.66 1.117 3.077 2.714 4.244 4.791 1.168 2.077 1.752 4.466 1.752 7.166 0 4.935-1.323 8.751-3.973 11.451-2.647 2.7-6.4 4.05-11.254 4.05-4.855 0-9.595-.754-14.217-2.259l.857-11.605c5.557 1.609 9.426 2.414 11.605 2.414 2.182 0 3.271-.959 3.271-2.881 0-.986-.583-1.896-1.751-2.727-1.169-.83-2.585-1.661-4.245-2.492-1.664-.83-3.338-1.792-5.025-2.882s-3.115-2.674-4.283-4.752c-1.168-2.076-1.754-4.543-1.754-7.399 0-4.622 1.352-8.334 4.051-11.139 2.701-2.805 6.402-4.208 11.102-4.208m0-1.483c-5.098 0-9.191 1.568-12.168 4.661-2.963 3.076-4.466 7.171-4.466 12.167 0 3.101.655 5.835 1.943 8.127 1.282 2.28 2.888 4.053 4.772 5.271a53.872 53.872 0 005.166 2.963c1.584.792 2.946 1.592 4.049 2.375.749.532 1.129 1.042 1.129 1.517 0 .818-.129 1.398-1.789 1.398-2.033 0-5.799-.792-11.192-2.356a1.47 1.47 0 00-1.259.207c-.369.255-.6.663-.634 1.108l-.856 11.605a1.484 1.484 0 001.02 1.521 47.303 47.303 0 0014.676 2.332c5.246 0 9.391-1.512 12.314-4.495 2.918-2.974 4.396-7.176 4.396-12.489 0-2.944-.653-5.601-1.943-7.893-1.275-2.27-2.861-4.051-4.71-5.294a42.744 42.744 0 00-5.165-2.986c-1.609-.779-2.991-1.526-4.107-2.222-.861-.535-1.056-.91-1.056-1 0-.658 0-1.476 2.179-1.476 1.799 0 5.249.59 10.258 1.753a1.48 1.48 0 001.807-1.261l1.558-12.463a1.485 1.485 0 00-1.195-1.642C125.076.48 120.121 0 115.352 0z"/><path fill="#1C239D" d="M158.152 51.375a.742.742 0 01-.741-.742V33.071h-7.63v17.563c0 .41-.332.742-.742.742h-13.396a.74.74 0 01-.741-.742V2.262a.74.74 0 01.741-.741h13.396a.74.74 0 01.742.741v18.264h7.63V2.262a.74.74 0 01.741-.741h13.242c.408 0 .742.331.742.741v48.371c0 .41-.334.742-.742.742h-13.242z"/><path fill="#FFF" d="M171.395 2.262v48.371h-13.242V32.329h-9.113v18.305h-13.396V2.262h13.396v19.006h9.113V2.262h13.242m0-1.484h-13.242c-.818 0-1.482.665-1.482 1.484v17.522h-6.146V2.262c0-.819-.664-1.484-1.484-1.484h-13.396c-.82 0-1.485.665-1.485 1.484v48.371c0 .819.665 1.483 1.485 1.483h13.396c.82 0 1.484-.664 1.484-1.483V33.812h6.146v16.821c0 .819.664 1.483 1.482 1.483h13.242c.819 0 1.484-.664 1.484-1.483V2.262c0-.819-.665-1.484-1.484-1.484z"/><path fill="#1C239D" d="M200.448 51.375a.74.74 0 01-.677-.439l-9.253-20.728v20.425c0 .41-.332.742-.741.742h-11.84a.74.74 0 01-.74-.742V2.262c0-.41.33-.741.74-.741h13.164c.3 0 .57.181.686.458l8.777 21.264V2.262a.74.74 0 01.74-.741h11.918c.409 0 .742.331.742.741v48.371c0 .41-.333.742-.742.742h-12.774z"/><path fill="#FFF" d="M213.223 2.262v48.371h-12.774l-10.047-22.511h-.624v22.511h-11.84V2.262h13.164l9.582 23.212h.621V2.262h11.918m0-1.484h-11.918c-.818 0-1.484.665-1.484 1.484v17.239l-7.348-17.805a1.484 1.484 0 00-1.371-.918h-13.164c-.818 0-1.484.665-1.484 1.484v48.371c0 .819.666 1.483 1.484 1.483h11.84c.82 0 1.483-.664 1.483-1.483V33.691l7.833 17.547c.238.535.77.878 1.354.878h12.774c.82 0 1.482-.664 1.482-1.483V2.262a1.48 1.48 0 00-1.481-1.484z"/><path fill="#1C239D" d="M220.076 51.375a.742.742 0 01-.742-.742V2.262a.74.74 0 01.742-.741h26.951a.744.744 0 01.74.789l-.779 11.918a.742.742 0 01-.74.693h-12.11v5.761h10.396a.74.74 0 01.741.741v10.283a.74.74 0 01-.741.742h-10.396v6.539h12.89c.205 0 .401.085.541.236.143.15.213.353.199.558l-.781 10.905a.738.738 0 01-.738.689h-26.173z"/><path fill="#FFF" d="M247.027 2.262l-.779 11.917h-12.854v7.244h11.14v10.283h-11.14v8.022h13.633l-.779 10.905h-26.172V2.262h26.951m0-1.484h-26.951c-.819 0-1.484.665-1.484 1.484v48.371c0 .819.665 1.483 1.484 1.483h26.172c.779 0 1.424-.602 1.48-1.377l.778-10.905a1.488 1.488 0 00-.394-1.118 1.489 1.489 0 00-1.086-.472h-12.148v-5.056h9.655c.82 0 1.483-.664 1.483-1.483V21.423c0-.818-.663-1.483-1.483-1.483h-9.655v-4.277h11.369c.781 0 1.43-.606 1.48-1.386l.778-11.917a1.494 1.494 0 00-.396-1.111 1.474 1.474 0 00-1.082-.471z"/><path fill="#1C239D" d="M264.902 52.154c-4.911 0-9.77-.772-14.443-2.295a.742.742 0 01-.512-.76l.857-11.606a.742.742 0 01.945-.658c5.462 1.583 9.297 2.386 11.4 2.386 2.229 0 2.529-1.083 2.529-2.14 0-.738-.472-1.433-1.441-2.122-1.133-.805-2.527-1.624-4.147-2.434a53.107 53.107 0 01-5.093-2.923c-1.783-1.151-3.307-2.837-4.529-5.011-1.227-2.179-1.847-4.791-1.847-7.763 0-4.799 1.433-8.719 4.258-11.653 2.831-2.942 6.746-4.434 11.634-4.434 4.723 0 9.631.476 14.587 1.415a.74.74 0 01.598.82l-1.558 12.463a.745.745 0 01-.905.631c-5.064-1.176-8.57-1.772-10.425-1.772-2.589 0-2.92 1.186-2.92 2.218 0 .625.764 1.231 1.403 1.629 1.141.71 2.545 1.47 4.174 2.26a41.91 41.91 0 015.076 2.934c1.754 1.178 3.259 2.875 4.479 5.042 1.226 2.18 1.849 4.714 1.849 7.53 0 5.112-1.408 9.14-4.186 11.97-2.779 2.835-6.744 4.273-11.783 4.273z"/><path fill="#FFF" d="M264.514 1.483c4.698 0 9.514.468 14.449 1.403l-1.559 12.462c-5.141-1.194-8.673-1.791-10.593-1.791-2.441 0-3.661.986-3.661 2.959 0 .779.584 1.532 1.752 2.259 1.169.728 2.582 1.494 4.246 2.298a41.358 41.358 0 014.984 2.882c1.662 1.117 3.077 2.714 4.244 4.791 1.17 2.077 1.754 4.466 1.754 7.166 0 4.935-1.324 8.751-3.974 11.451-2.646 2.7-6.399 4.05-11.255 4.05s-9.593-.754-14.215-2.259l.857-11.605c5.556 1.609 9.426 2.414 11.605 2.414 2.181 0 3.271-.959 3.271-2.881 0-.986-.584-1.896-1.752-2.727-1.17-.83-2.584-1.661-4.247-2.492a52.35 52.35 0 01-5.022-2.882c-1.688-1.09-3.117-2.674-4.285-4.752-1.168-2.076-1.752-4.543-1.752-7.399 0-4.622 1.35-8.334 4.05-11.139 2.702-2.805 6.403-4.208 11.103-4.208m0-1.483c-5.098 0-9.192 1.568-12.17 4.661-2.963 3.076-4.464 7.17-4.464 12.167 0 3.102.653 5.835 1.943 8.127 1.282 2.28 2.886 4.053 4.771 5.271a53.823 53.823 0 005.167 2.963c1.582.792 2.946 1.592 4.049 2.375.748.533 1.127 1.043 1.127 1.517 0 .818-.127 1.398-1.787 1.398-2.033 0-5.799-.792-11.192-2.356a1.478 1.478 0 00-1.261.207c-.367.255-.6.663-.633 1.108l-.857 11.605a1.487 1.487 0 001.02 1.521 47.322 47.322 0 0014.676 2.332c5.246 0 9.389-1.512 12.316-4.495 2.918-2.974 4.396-7.175 4.396-12.489 0-2.945-.655-5.601-1.942-7.893-1.279-2.27-2.861-4.051-4.711-5.294a42.754 42.754 0 00-5.166-2.986c-1.607-.778-2.99-1.525-4.107-2.222-.861-.535-1.054-.91-1.054-1 0-.658 0-1.476 2.178-1.476 1.798 0 5.249.59 10.257 1.753a1.48 1.48 0 001.185-.229c.345-.241.571-.615.624-1.032l1.558-12.463a1.483 1.483 0 00-1.195-1.642C274.237.48 269.283 0 264.514 0z"/><path fill="#1C239D" d="M298.161 52.154c-4.909 0-9.771-.772-14.444-2.296a.742.742 0 01-.51-.76l.855-11.606a.746.746 0 01.947-.658c5.462 1.583 9.296 2.386 11.4 2.386 2.228 0 2.529-1.083 2.529-2.14 0-.738-.473-1.433-1.441-2.122-1.133-.805-2.527-1.623-4.147-2.434a53.315 53.315 0 01-5.095-2.923c-1.781-1.151-3.305-2.836-4.527-5.011-1.227-2.179-1.849-4.791-1.849-7.763 0-4.798 1.433-8.719 4.259-11.653C288.97 2.232 292.884.74 297.771.74c4.725 0 9.633.476 14.588 1.415a.742.742 0 01.598.82l-1.559 12.463a.736.736 0 01-.903.631c-5.063-1.176-8.572-1.772-10.427-1.772-2.587 0-2.919 1.186-2.919 2.218 0 .625.764 1.231 1.404 1.629 1.139.71 2.545 1.47 4.176 2.26a41.951 41.951 0 015.076 2.934c1.75 1.179 3.257 2.875 4.478 5.042 1.226 2.18 1.849 4.714 1.849 7.53 0 5.112-1.408 9.139-4.188 11.97-2.778 2.836-6.742 4.274-11.783 4.274z"/><path fill="#FFF" d="M297.771 1.483c4.7 0 9.516.468 14.449 1.403l-1.559 12.462c-5.141-1.194-8.672-1.791-10.593-1.791-2.44 0-3.659.986-3.659 2.959 0 .779.582 1.532 1.751 2.259 1.168.728 2.585 1.494 4.245 2.298a41.138 41.138 0 014.985 2.882c1.662 1.117 3.077 2.714 4.245 4.791s1.752 4.466 1.752 7.166c0 4.935-1.323 8.751-3.972 11.451s-6.401 4.05-11.256 4.05a45.61 45.61 0 01-14.214-2.259l.855-11.605c5.556 1.609 9.426 2.414 11.607 2.414 2.18 0 3.27-.959 3.27-2.881 0-.986-.584-1.896-1.751-2.727-1.169-.83-2.585-1.661-4.245-2.492-1.664-.83-3.338-1.792-5.025-2.882s-3.115-2.674-4.283-4.752c-1.169-2.076-1.754-4.543-1.754-7.399 0-4.622 1.352-8.334 4.052-11.139 2.7-2.805 6.401-4.208 11.1-4.208m0-1.483c-5.097 0-9.19 1.568-12.168 4.661-2.963 3.076-4.466 7.171-4.466 12.167 0 3.102.653 5.836 1.943 8.127 1.282 2.28 2.887 4.053 4.771 5.271a54.264 54.264 0 005.168 2.963c1.583.792 2.946 1.592 4.048 2.375.748.533 1.127 1.043 1.127 1.517 0 .818-.127 1.398-1.785 1.398-2.035 0-5.801-.792-11.194-2.356a1.478 1.478 0 00-1.892 1.315l-.857 11.605a1.486 1.486 0 001.02 1.521 47.306 47.306 0 0014.675 2.332c5.246 0 9.39-1.512 12.315-4.495 2.918-2.974 4.396-7.176 4.396-12.489 0-2.944-.652-5.601-1.943-7.893-1.276-2.27-2.861-4.051-4.71-5.294a42.908 42.908 0 00-5.166-2.986c-1.608-.779-2.99-1.526-4.108-2.222-.857-.535-1.053-.91-1.053-1 0-.658 0-1.476 2.177-1.476 1.8 0 5.249.59 10.259 1.753a1.492 1.492 0 001.186-.229c.342-.241.568-.615.622-1.032l1.557-12.463a1.481 1.481 0 00-1.195-1.642C307.495.48 302.541 0 297.771 0z"/><path fill="#1C239D" d="M154.489 110.722a.74.74 0 01-.739-.742V61.609c0-.41.33-.742.739-.742h26.951a.746.746 0 01.741.791l-.779 11.917a.742.742 0 01-.74.693h-12.111v5.761h9.619c.409 0 .741.332.741.741v10.282a.74.74 0 01-.741.741h-9.619v18.187a.742.742 0 01-.741.742h-13.321z"/><path fill="#FFF" d="M181.44 61.609l-.778 11.917H167.81v7.244h10.36v10.282h-10.36v18.928h-13.32V61.609h26.95m0-1.484h-26.951c-.819 0-1.483.664-1.483 1.483v48.371c0 .82.664 1.484 1.483 1.484h13.32c.818 0 1.483-.664 1.483-1.484V92.537h8.877c.818 0 1.483-.665 1.483-1.484V80.77c0-.819-.665-1.483-1.483-1.483h-8.877V75.01h11.369c.781 0 1.428-.607 1.48-1.387l.779-11.917a1.487 1.487 0 00-1.48-1.581z"/><g><path fill="#1C239D" d="M204.186 110.722a.74.74 0 01-.715-.544l-4.679-16.904h-.486v16.706a.742.742 0 01-.741.742h-13.086a.742.742 0 01-.741-.742V61.609a.74.74 0 01.741-.742h18.072c5.372 0 9.39 1.306 11.937 3.881 2.546 2.574 3.837 6.68 3.837 12.206 0 3.002-.469 5.544-1.393 7.554-.865 1.882-2.191 3.613-3.947 5.154l6.318 20.096c.071.226.031.471-.109.661s-.363.304-.598.304h-14.41zm-4.596-27.11c1.108 0 1.854-.283 2.283-.866.324-.443.713-1.465.713-3.806 0-2.346-.391-3.392-.721-3.855-.427-.602-1.147-.895-2.197-.895h-1.362v9.422h1.284z"/><path fill="#FFF" d="M202.551 61.609c5.189 0 8.994 1.221 11.41 3.661 2.414 2.441 3.621 6.336 3.621 11.684 0 2.909-.441 5.323-1.324 7.243-.885 1.922-2.259 3.662-4.129 5.22l6.467 20.563h-14.41l-4.83-17.448h-1.791v17.448h-13.086V61.609h18.072m-4.987 22.744h2.025c1.349 0 2.31-.389 2.881-1.168.572-.779.856-2.193.856-4.245 0-2.051-.284-3.479-.856-4.284-.571-.804-1.507-1.207-2.803-1.207h-2.104v10.904m4.988-24.228h-18.072c-.82 0-1.485.664-1.485 1.483v48.371c0 .82.665 1.484 1.485 1.484h13.086c.818 0 1.483-.664 1.483-1.484V96.982l3.708 13.394a1.483 1.483 0 001.43 1.089h14.41a1.485 1.485 0 001.415-1.929l-6.175-19.641c1.654-1.527 2.921-3.232 3.77-5.076.97-2.109 1.461-4.755 1.461-7.864 0-5.727-1.364-10.01-4.051-12.727-2.694-2.724-6.888-4.103-12.465-4.103zm-3.503 14.807h.62c1.18 0 1.492.439 1.594.582.174.248.582 1.077.582 3.426 0 2.338-.397 3.134-.57 3.368-.273.372-.84.562-1.684.562h-.542v-7.938z"/></g><g><path fill="#1C239D" d="M240.404 111.501c-6.973 0-12.074-2.175-15.169-6.462-3.038-4.212-4.579-10.791-4.579-19.557 0-8.773 1.559-15.254 4.633-19.263 3.119-4.068 8.256-6.132 15.27-6.132 7.016 0 12.128 2.038 15.194 6.056 3.022 3.959 4.555 10.414 4.555 19.183 0 8.765-1.567 15.371-4.659 19.636-3.145 4.339-8.274 6.539-15.245 6.539zm.038-37.622c-1.995 0-3.234.675-3.789 2.065-.638 1.591-.96 4.735-.96 9.345v1.869c0 4.904.355 8.139 1.059 9.612.623 1.313 1.906 1.953 3.925 1.953 2.009 0 3.253-.596 3.802-1.821.629-1.403.947-4.447.947-9.043v-2.492c0-4.649-.359-7.812-1.064-9.396-.628-1.408-1.911-2.092-3.92-2.092z"/><path fill="#FFF" d="M240.559 60.83c6.805 0 11.672 1.921 14.606 5.764 2.933 3.844 4.401 10.086 4.401 18.733s-1.507 15.048-4.519 19.201c-3.013 4.155-7.895 6.23-14.644 6.23-6.751 0-11.607-2.05-14.565-6.153-2.96-4.101-4.441-10.477-4.441-19.122 0-8.646 1.493-14.917 4.479-18.811 2.987-3.894 7.881-5.842 14.683-5.842m.118 38.634c2.31 0 3.804-.752 4.479-2.259.674-1.506 1.012-4.621 1.012-9.347v-2.492c0-4.778-.377-8.011-1.129-9.698-.755-1.687-2.287-2.531-4.597-2.531s-3.805.844-4.478 2.531c-.676 1.688-1.013 4.896-1.013 9.62v1.869c0 5.037.376 8.348 1.13 9.932.753 1.584 2.284 2.375 4.596 2.375m-.118-40.118c-7.256 0-12.592 2.161-15.859 6.423-3.219 4.199-4.785 10.647-4.785 19.714 0 8.925 1.59 15.651 4.722 19.991 3.239 4.491 8.544 6.769 15.769 6.769 7.221 0 12.553-2.303 15.845-6.845 3.185-4.394 4.801-11.146 4.801-20.071 0-9.062-1.54-15.484-4.706-19.633-3.218-4.212-8.53-6.348-15.787-6.348zm.118 38.635c-2.269 0-2.944-.872-3.255-1.528-.451-.946-.986-3.325-.986-9.295v-1.869c0-5.624.492-8.036.905-9.068.298-.745.921-1.6 3.102-1.6 2.245 0 2.925.943 3.242 1.653.455 1.023.999 3.433.999 9.093v2.492c0 5.595-.479 7.841-.882 8.74-.171.377-.62 1.382-3.125 1.382z"/></g><g><path fill="#1C239D" d="M299.445 110.722a.744.744 0 01-.742-.742V89.108l-3.824 21.005a.741.741 0 01-.73.609h-12.54a.742.742 0 01-.731-.615l-3.668-21.223v21.096a.742.742 0 01-.74.742h-12.075a.742.742 0 01-.741-.768l1.637-48.371a.74.74 0 01.74-.717h17.526c.362 0 .673.263.732.621l3.935 23.606 3.791-23.602a.744.744 0 01.732-.625h17.293c.4 0 .729.317.74.717l1.637 48.371a.74.74 0 01-.742.768h-12.23z"/><path fill="#FFF" d="M310.039 61.609l1.635 48.371h-12.229V84.744h-.699l-4.598 25.236h-12.54l-4.362-25.236h-.777v25.236h-12.075l1.636-48.371h17.526l4.362 26.172h.623l4.205-26.172h17.293m0-1.484h-17.293c-.729 0-1.348.529-1.465 1.248L288.209 80.5l-3.189-19.135a1.483 1.483 0 00-1.464-1.24H266.03c-.799 0-1.455.634-1.482 1.433l-1.635 48.371a1.483 1.483 0 001.481 1.535h12.075c.818 0 1.482-.664 1.482-1.484V97.532l2.197 12.7a1.479 1.479 0 001.46 1.232h12.54c.717 0 1.332-.514 1.459-1.219l2.355-12.923v12.657c0 .82.663 1.484 1.482 1.484h12.229a1.483 1.483 0 001.484-1.535l-1.635-48.371a1.484 1.484 0 00-1.483-1.432z"/></g><g><path fill="#1C239D" d="M41.314 170.069a.742.742 0 01-.741-.742v-35.868h-8.839a.743.743 0 01-.739-.791l.776-11.762a.744.744 0 01.741-.692h31.937a.737.737 0 01.739.791l-.776 11.762a.744.744 0 01-.741.692h-8.295v35.868a.741.741 0 01-.739.742H41.314z"/><path fill="#FFF" d="M64.449 120.955l-.778 11.763h-9.034v36.609H41.314v-36.609h-9.58l.778-11.763h31.937m0-1.483H32.513c-.78 0-1.427.605-1.479 1.385l-.779 11.762a1.485 1.485 0 001.48 1.582h8.097v35.126c0 .819.665 1.483 1.483 1.483h13.322c.818 0 1.482-.664 1.482-1.483v-35.126h7.552c.78 0 1.429-.605 1.479-1.386l.779-11.762a1.495 1.495 0 00-.396-1.112 1.489 1.489 0 00-1.084-.469z"/></g><g><path fill="#1C239D" d="M89.997 170.069a.742.742 0 01-.741-.742v-17.563h-7.631v17.563a.742.742 0 01-.741.742H67.486a.742.742 0 01-.742-.742v-48.372c0-.408.332-.741.742-.741h13.397c.409 0 .741.333.741.741v18.266h7.631v-18.266c0-.408.332-.741.741-.741h13.241c.411 0 .743.333.743.741v48.372a.743.743 0 01-.743.742h-13.24z"/><path fill="#FFF" d="M103.238 120.955v48.372H89.997v-18.305h-9.113v18.305H67.486v-48.372h13.397v19.007h9.113v-19.007h13.242m0-1.483H89.997c-.818 0-1.483.664-1.483 1.482v17.522h-6.146v-17.522c0-.818-.662-1.482-1.483-1.482H67.486c-.819 0-1.484.664-1.484 1.482v48.372c0 .819.665 1.483 1.484 1.483h13.397c.821 0 1.483-.664 1.483-1.483v-16.821h6.146v16.821c0 .819.665 1.483 1.483 1.483h13.241c.82 0 1.484-.664 1.484-1.483v-48.372a1.479 1.479 0 00-1.482-1.482z"/></g><g><path fill="#1C239D" d="M109.781 170.069a.742.742 0 01-.741-.742v-48.372c0-.408.332-.741.741-.741h26.951a.744.744 0 01.74.79l-.779 11.918a.74.74 0 01-.74.693h-12.11v5.761h10.397c.409 0 .742.331.742.741v10.282a.742.742 0 01-.742.741h-10.397v6.54h12.89a.74.74 0 01.74.794l-.779 10.905a.742.742 0 01-.74.689h-26.173z"/><path fill="#FFF" d="M136.732 120.955l-.779 11.918h-12.852v7.244h11.139v10.282h-11.139v8.022h13.631l-.779 10.905h-26.172v-48.372h26.951m0-1.482h-26.951c-.818 0-1.483.664-1.483 1.482v48.372c0 .819.665 1.483 1.483 1.483h26.172c.779 0 1.424-.602 1.48-1.378l.778-10.905a1.484 1.484 0 00-1.48-1.59h-12.147v-5.055h9.655c.82 0 1.482-.664 1.482-1.483v-10.282c0-.819-.662-1.483-1.482-1.483h-9.655v-4.276h11.368c.781 0 1.43-.607 1.48-1.388l.779-11.917a1.483 1.483 0 00-1.479-1.58z"/></g><g><path fill="#1C239D" d="M157.606 170.069a.74.74 0 01-.741-.742v-48.372a.74.74 0 01.741-.741h26.95a.743.743 0 01.74.79l-.777 11.918a.742.742 0 01-.74.693h-12.111v5.761h9.617a.74.74 0 01.741.741v10.282a.74.74 0 01-.741.741h-9.617v18.187a.742.742 0 01-.742.742h-13.32z"/><path fill="#FFF" d="M184.557 120.955l-.777 11.918h-12.854v7.244h10.359v10.282h-10.359v18.928h-13.319v-48.372h26.95m0-1.483h-26.95c-.819 0-1.483.664-1.483 1.482v48.372c0 .819.664 1.483 1.483 1.483h13.319c.819 0 1.484-.664 1.484-1.483v-17.444h8.875c.82 0 1.484-.664 1.484-1.483v-10.282c0-.819-.664-1.483-1.484-1.483h-8.875v-4.276h11.369c.781 0 1.428-.607 1.479-1.388l.779-11.917a1.486 1.486 0 00-1.48-1.581z"/></g><g><path fill="#1C239D" d="M209.326 170.069a.743.743 0 01-.728-.601l-1.364-7.033h-7.968l-1.362 7.033a.745.745 0 01-.73.601H184.79a.744.744 0 01-.729-.876l8.879-48.371a.743.743 0 01.73-.608h19.785c.357 0 .664.256.729.608l8.879 48.371a.738.738 0 01-.728.876h-13.009zm-3.827-18.232l-2.131-13.516-2.132 13.516h4.263z"/><path fill="#FFF" d="M213.455 120.955l8.879 48.372h-13.008l-1.48-7.633h-9.189l-1.482 7.633H184.79l8.88-48.372h19.785m-13.087 31.625h5.999l-2.727-17.292h-.546l-2.726 17.292m13.087-33.108H193.67c-.716 0-1.33.511-1.459 1.215l-8.881 48.372a1.483 1.483 0 001.46 1.751h12.384c.711 0 1.324-.503 1.457-1.201l1.248-6.433h6.744l1.247 6.433a1.483 1.483 0 001.456 1.201h13.008c.441 0 .857-.195 1.141-.533.281-.339.398-.785.32-1.218l-8.881-48.372a1.484 1.484 0 00-1.459-1.215zm-11.35 31.624l1.263-8.012 1.263 8.012h-2.526z"/></g><g><path fill="#1C239D" d="M246.09 170.069a.745.745 0 01-.715-.545l-4.679-16.903h-.485v16.706a.742.742 0 01-.741.742h-13.087a.741.741 0 01-.74-.742v-48.372c0-.408.331-.741.74-.741h18.072c5.373 0 9.39 1.306 11.939 3.881 2.545 2.574 3.835 6.681 3.835 12.206 0 3.002-.468 5.543-1.392 7.554-.865 1.882-2.191 3.612-3.947 5.153l6.318 20.097a.742.742 0 01-.709.965H246.09zm-4.596-27.111c1.11 0 1.857-.283 2.284-.865.325-.444.714-1.465.714-3.807 0-2.346-.393-3.392-.721-3.855-.429-.602-1.147-.895-2.199-.895h-1.361v9.422h1.283z"/><path fill="#FFF" d="M244.455 120.955c5.192 0 8.996 1.222 11.41 3.662 2.416 2.441 3.623 6.336 3.623 11.684 0 2.908-.441 5.324-1.323 7.244-.886 1.922-2.261 3.661-4.13 5.219l6.465 20.563h-14.41l-4.828-17.448h-1.792v17.448h-13.087v-48.372h18.072m-4.985 22.746h2.024c1.351 0 2.312-.39 2.883-1.169.572-.779.856-2.192.856-4.245 0-2.051-.284-3.479-.856-4.284-.571-.805-1.507-1.208-2.805-1.208h-2.103v10.906m4.986-24.229h-18.072c-.818 0-1.483.664-1.483 1.482v48.372c0 .819.665 1.483 1.483 1.483h13.087c.819 0 1.484-.664 1.484-1.483v-12.999l3.707 13.395a1.484 1.484 0 001.429 1.088h14.41a1.485 1.485 0 001.416-1.928l-6.174-19.641c1.654-1.528 2.923-3.232 3.77-5.077.969-2.107 1.461-4.754 1.461-7.863 0-5.728-1.363-10.01-4.053-12.728-2.691-2.722-6.887-4.101-12.465-4.101zm-3.501 14.807h.618c1.182 0 1.493.438 1.594.583.175.246.584 1.076.584 3.425 0 2.338-.398 3.134-.57 3.367-.273.373-.84.563-1.686.563h-.54v-7.938z"/></g><g><path fill="#1C239D" d="M299.445 170.069a.744.744 0 01-.742-.742v-20.872l-3.824 21.005a.741.741 0 01-.73.609h-12.54a.742.742 0 01-.731-.616l-3.668-21.222v21.096a.742.742 0 01-.74.742h-12.075a.734.734 0 01-.532-.228.74.74 0 01-.209-.54l1.637-48.371a.742.742 0 01.74-.717h17.526c.362 0 .673.263.732.62l3.935 23.606 3.791-23.603a.744.744 0 01.732-.624h17.293c.4 0 .729.317.74.717l1.637 48.371a.744.744 0 01-.742.768h-12.23z"/><path fill="#FFF" d="M310.039 120.955l1.635 48.372h-12.229V144.09h-.699l-4.598 25.237h-12.54l-4.362-25.237h-.777v25.237h-12.075l1.636-48.372h17.526l4.362 26.173h.623l4.205-26.173h17.293m0-1.483h-17.293c-.729 0-1.348.528-1.465 1.248l-3.072 19.127-3.189-19.137a1.482 1.482 0 00-1.464-1.238H266.03c-.799 0-1.455.633-1.482 1.434l-1.635 48.371a1.481 1.481 0 001.481 1.533h12.075c.818 0 1.482-.664 1.482-1.483v-12.448l2.197 12.701c.121.711.737 1.23 1.46 1.23h12.54c.717 0 1.332-.512 1.459-1.217l2.355-12.924v12.657c0 .819.663 1.483 1.482 1.483h12.229a1.482 1.482 0 001.484-1.533l-1.635-48.371a1.484 1.484 0 00-1.483-1.433z"/></g></svg>