<svg xmlns="http://www.w3.org/2000/svg" width="239.692" height="6.61"><path fill="#FFF" d="M34.625 6.61c-.066 0-.134-.002-.2-.004-2.699-.105-4.426-2.314-4.498-2.408-1.531-1.835-3.211-2.791-4.979-2.827l-.104-.001c-2.823 0-4.962 2.326-4.983 2.351-1.464 1.792-3.168 2.751-5.051 2.832-3.385.162-5.986-2.539-6.096-2.653C7.367 2.667 5.982 2.109 4.61 2.25 2.34 2.489.829 4.57.814 4.592L0 4.01c.072-.101 1.793-2.469 4.506-2.754 1.674-.177 3.317.473 4.905 1.926.045.045 2.519 2.49 5.362 2.372 1.583-.07 3.04-.906 4.329-2.485.118-.132 2.561-2.734 5.865-2.696 2.071.042 4.002 1.119 5.739 3.201.027.034 1.538 1.951 3.766 2.034 1.552.05 3.113-.776 4.646-2.478.07-.095 2.381-3.13 5.508-3.13h.04c1.846.016 3.549 1.082 5.063 3.172.021.031 1.524 2.172 3.957 2.389 1.79.146 3.64-.728 5.533-2.634.045-.063 2.025-2.534 4.95-2.636 1.854-.055 3.621.828 5.274 2.652.02.021 2.145 2.293 5.012 2.344 1.759.034 3.434-.763 5.013-2.359.056-.067 1.975-2.27 4.863-2.401 1.846-.083 3.701.72 5.425 2.395.037.039 1.956 2.071 4.604 2.143 1.684.083 3.263-.677 4.784-2.144.064-.078 2.343-2.667 5.534-2.705l.072-.001c1.91 0 3.713.918 5.36 2.729.03.036 1.771 2.072 4.355 2.226 1.734.102 3.479-.655 5.183-2.253.063-.072 2.227-2.441 5.081-2.441l.095.001c1.667.03 3.198.866 4.55 2.484.016.018 2.161 2.448 4.997 2.478 1.687.004 3.318-.821 4.833-2.493.091-.104 2.383-2.664 5.642-2.728 2.001-.077 3.916.874 5.674 2.719.144.15 3.645 3.676 8.382-.049.039-.048 2.247-2.336 5.317-2.367 1.833.015 3.611.793 5.21 2.409.176.179 4.326 4.278 9.836-.042.042-.055 2.423-2.598 5.617-2.598h.049c1.879.016 3.623.91 5.183 2.658.158.138 4.846 4.23 9.194-.024.09-.09 2.324-2.301 5.312-2.301h.054c1.755.016 3.386.793 4.845 2.312.022.023 2.23 2.281 5.034 2.281h.049c1.614-.015 3.137-.78 4.523-2.274.064-.078 1.978-2.3 4.775-2.39 1.768-.013 3.46.747 5.035 2.383.019.019 2.412 2.379 5.419 2.354 1.66-.034 3.208-.823 4.601-2.346l.738.676c-1.588 1.733-3.38 2.632-5.326 2.67l-.127.001c-3.354 0-5.912-2.548-6.021-2.657-1.376-1.43-2.824-2.143-4.287-2.081-2.359.075-4.043 2.033-4.06 2.053-1.599 1.724-3.367 2.597-5.271 2.611h-.051c-3.237.001-5.652-2.482-5.755-2.589-1.263-1.314-2.651-1.988-4.125-2.004h-.051c-2.565 0-4.589 1.991-4.609 2.012-5.031 4.916-10.551.066-10.604.019-1.401-1.566-2.895-2.348-4.477-2.363h-.047c-2.75 0-4.921 2.308-4.942 2.331-6.285 4.94-11.175.06-11.225.01-1.4-1.417-2.915-2.161-4.487-2.11-2.651.026-4.637 2.084-4.656 2.105-5.512 4.338-9.733.046-9.776.001-1.525-1.601-3.148-2.411-4.827-2.411l-.095.001c-2.816.052-4.904 2.372-4.925 2.396-1.7 1.877-3.558 2.826-5.525 2.826l-.071-.001c-3.29-.038-5.642-2.715-5.74-2.829-1.162-1.391-2.438-2.105-3.801-2.133h-.08c-2.405 0-4.351 2.119-4.37 2.141-1.945 1.826-3.943 2.666-5.967 2.551-3.019-.185-4.957-2.469-5.038-2.565-1.436-1.578-2.99-2.386-4.607-2.386l-.052.001c-2.738.029-4.809 2.369-4.83 2.393-1.755 1.696-3.621 2.478-5.546 2.456-3.072-.089-5.192-2.349-5.281-2.445-1.499-1.454-3.068-2.18-4.664-2.093-2.461.112-4.156 2.06-4.173 2.079-1.807 1.828-3.731 2.703-5.775 2.683-3.301-.064-5.626-2.563-5.724-2.67-1.446-1.595-2.958-2.349-4.494-2.327-2.457.081-4.227 2.277-4.244 2.3-2.155 2.173-4.29 3.159-6.38 2.966-2.905-.266-4.604-2.705-4.676-2.809C47.602 1.94 46.168 1.013 44.657 1h-.031c-2.633 0-4.715 2.737-4.735 2.765-1.708 1.899-3.471 2.845-5.266 2.845z"/></svg>